<?xml version="1.0" encoding="utf-8"?>
<!-- Generator: Adobe Illustrator 23.0.5, SVG Export Plug-In . SVG Version: 6.00 Build 0)  -->
<svg version="1.1" id="Layer_1" xmlns="http://www.w3.org/2000/svg" xmlns:xlink="http://www.w3.org/1999/xlink" x="0px" y="0px"
	 viewBox="0 0 1920 1080" style="enable-background:new 0 0 1920 1080;" xml:space="preserve">
<style type="text/css">
	.st0{fill:#26A69A;}
</style>
<g>
	<path class="st0" d="M433.2,830.8h-98.6V432.6h98.6c31.9,0,56.1,7.6,72.6,22.7c16.5,15.1,24.8,36.1,24.8,63.1V745
		c0,27.4-8.2,48.5-24.5,63.4C489.7,823.4,465.4,830.8,433.2,830.8z M487.7,745V518.4c0-15.5-4.7-27.6-14.1-36.1
		c-9.4-8.6-22.9-12.9-40.4-12.9h-55.7V794h55.7C469.5,794.1,487.7,777.7,487.7,745z"/>
	<path class="st0" d="M794,754.2v-33.7h42.9v33.7c0,27.4-8.4,48.5-25.1,63.4C795,832.5,769.9,840,736.4,840s-58.8-7.5-76-22.4
		s-25.7-36-25.7-63.4v-245c0-27.4,8.4-48.5,25.1-63.4c16.7-14.9,41.9-22.4,75.4-22.4s58.8,7.5,76,22.4s25.7,36,25.7,63.4V644H677.6
		v110.3c0,32.7,19.4,49,58.2,49C774.6,803.2,794,786.9,794,754.2z M677.6,509.2v98H794v-98c0-32.7-19.4-49-58.2-49
		S677.6,476.5,677.6,509.2z"/>
	<path class="st0" d="M993.7,830.8h-42.9V432.6h42.9v169.1l106.6-169.1h47.8l-108.4,171.5l115.8,226.7h-47.2L1014,645.2l-20.2,32.5
		L993.7,830.8L993.7,830.8z"/>
	<path class="st0" d="M1271.8,830.8h-42.9V432.6h42.9V830.8z"/>
	<path class="st0" d="M1585.4,830.8h-44.7l-69.2-155l-69.2,155h-44.7l91.9-205.2l-85.8-193h44.7l65.6,148.2l66.8-148.2h44.7
		l-88.8,198.5L1585.4,830.8z"/>
</g>
</svg>
