<svg xmlns="http://www.w3.org/2000/svg" viewBox="0 0 118.97 46.3"><defs><style>.cls-1{fill:#26a69a;}.cls-2{fill:none;}</style></defs><title>Asset 1</title><g id="Layer_2" data-name="Layer 2"><g id="Layer_1-2" data-name="Layer 1"><path class="cls-1" d="M56.07,38.48a13.11,13.11,0,0,1-2.91,4,14,14,0,0,1-4.54,2.79,13.37,13.37,0,0,1-5.37.89A14.29,14.29,0,0,1,38.14,45a12.93,12.93,0,0,1-4.24-3,13.87,13.87,0,0,1-3.77-9.95A14.29,14.29,0,0,1,31.29,27a13.66,13.66,0,0,1,3-4.27,13.14,13.14,0,0,1,4.57-2.91,11.33,11.33,0,0,1,7.81-.27,15.26,15.26,0,0,1,6.57,4.4c-1.29,1.17-2.69,2.45-4.18,3.84l-4.58,4.28L39.8,36.4c-1.53,1.42-3,2.76-4.33,4a11.15,11.15,0,0,0,5.61,3.24,10.88,10.88,0,0,0,6.65-.48,11.43,11.43,0,0,0,3.75-2.29A11,11,0,0,0,54,37.57ZM50.18,24.37a10.28,10.28,0,0,0-4.86-2.77,9.25,9.25,0,0,0-5.66.42,11,11,0,0,0-3.8,2.43A11.57,11.57,0,0,0,33.38,28a11.22,11.22,0,0,0-1,4.2,11.06,11.06,0,0,0,.74,4.39,9.56,9.56,0,0,0,.6,1.29c.22.39.46.79.7,1.17l3.83-3.59c1.35-1.27,2.71-2.53,4.09-3.8s2.72-2.53,4.06-3.76S49,25.49,50.18,24.37Z"/><rect class="cls-1" x="88.21" y="18.51" width="2.46" height="27.74"/><rect class="cls-1" x="107.37" y="16.25" width="2.48" height="32.31" transform="matrix(0.82, 0.58, -0.58, 0.82, 38.77, -56.86)"/><rect class="cls-1" x="107.37" y="16.25" width="2.48" height="32.31" transform="translate(215.94 -4) rotate(144.65)"/><path class="cls-1" d="M75.77,38l-6.09-8.3L79.9,20l-1.47-1.54-7.7,7.18Q67,29.1,63,32.81V0H60.65V46.25H63V35.89l4.9-4.62q2.73,3.78,5.5,7.49t5.49,7.49h2.87Q78.79,42.05,75.77,38Z"/><path class="cls-2" d="M13.43,21.19A11,11,0,1,0,23.67,36.28V28.13A11,11,0,0,0,13.43,21.19Z"/><path class="cls-1" d="M13.43,43.23a11,11,0,1,1,10.24-15.1V23.52a13.43,13.43,0,1,0,0,17.38V36.28A11,11,0,0,1,13.43,43.23Z"/><path class="cls-1" d="M26.13,27.81v0Z"/><polygon class="cls-1" points="26.13 0 23.67 0 23.67 23.52 23.67 28.13 23.67 36.28 23.67 40.9 23.67 46.27 26.13 46.27 26.13 36.6 26.13 27.81 26.13 0"/></g></g></svg>