<?xml version="1.0" encoding="UTF-8" standalone="no"?>
<!DOCTYPE svg PUBLIC "-//W3C//DTD SVG 1.1//EN" "http://www.w3.org/Graphics/SVG/1.1/DTD/svg11.dtd">
<svg version="1.1" xmlns="http://www.w3.org/2000/svg" xmlns:xlink="http://www.w3.org/1999/xlink" preserveAspectRatio="xMidYMid meet" viewBox="0 0 512 512" width="512" height="512"><defs><path d="M-5.1 -6.12L516.41 -6.12L516.41 517.43L-5.1 517.43L-5.1 -6.12Z" id="a1Pccfhu32"></path><path d="M355.9 168.96C355.9 224.1 311.14 268.86 256 268.86C200.86 268.86 156.1 224.1 156.1 168.96C156.1 113.83 200.86 69.06 256 69.06C311.14 69.06 355.9 113.83 355.9 168.96Z" id="b5bF9irzmc"></path><path d="M431 502.35C431 607.41 352.58 692.71 256 692.71C159.41 692.71 81 607.41 81 502.35C81 397.29 159.41 311.99 256 311.99C352.58 311.99 431 397.29 431 502.35Z" id="j6Wo9dTJM"></path></defs><g><g><g><use xlink:href="#a1Pccfhu32" opacity="1" fill="#cbcbcb" fill-opacity="1"></use></g><g><use xlink:href="#b5bF9irzmc" opacity="1" fill="#818181" fill-opacity="1"></use><use xlink:href="#b5bF9irzmc" opacity="1" fill="#818181" fill-opacity="1"></use><g><use xlink:href="#b5bF9irzmc" opacity="1" fill-opacity="0" stroke="#5c5c5c" stroke-width="12" stroke-opacity="1"></use></g></g><g><use xlink:href="#j6Wo9dTJM" opacity="1" fill="#818181" fill-opacity="1"></use><g><use xlink:href="#j6Wo9dTJM" opacity="1" fill-opacity="0" stroke="#5c5c5c" stroke-width="12" stroke-opacity="1"></use></g></g></g></g></svg>